<svg width="20" height="20" viewBox="0 0 20 20" fill="none" xmlns="http://www.w3.org/2000/svg">
    <path d="M10 3.75C9.30964 3.75 8.75 4.30964 8.75 5V8.125H7.5V5C7.5 3.75736 8.50736 2.75 9.75 2.75C10.9926 2.75 12 3.75736 12 5V8.125H10.75V5C10.75 4.30964 10.1904 3.75 10 3.75ZM14.375 8.125H5.625V16.25C5.625 17.7677 6.85772 19 8.375 19H11.625C13.1423 19 14.375 17.7677 14.375 16.25V8.125ZM13.125 16.25C13.125 16.9404 12.5654 17.5 11.875 17.5H8.125C7.43464 17.5 6.875 16.9404 6.875 16.25V8.125H13.125V16.25Z" fill="#7986AC"/>
</svg>

